<svg id="logo" xmlns="http://www.w3.org/2000/svg" width="91.041" height="32" viewBox="0 0 91.041 32">
  <g id="BO" transform="translate(-32.777 -91.845)">
    <path id="v" d="M53.059,91.845l-5.234,19.7-5.365-19.7H32.777l10.207,31.58h9.684L61.173,97.5h62.383l.262-5.659Z" fill="#d52027"/>
    <path id="s" d="M302.04,128.684c-2.395-.875-2.647-1.48-2.647-2.153s1.008-1.48,2.521-1.48,3.024.875,3.024,2.085h6.173c0-2.153-1.889-7.333-8.82-7.333s-9.575,4.373-9.323,7.333c0,2.489,1.764,5.382,9.576,7.871,2.394.875,2.9,1.884,2.9,2.557s-1.512,1.682-3.023,1.682-3.529-1.279-3.529-2.557h-6.552c0,2.22,1.765,7.534,9.828,7.534,6.93,0,10.08-4.507,9.827-7.467C311.993,132.114,305.316,129.491,302.04,128.684Z" transform="translate(-189.191 -20.379)" fill="#d52027"/>
    <path id="a" d="M135.246,122.532h-7.308l-7.56,23.276h6.426l.756-3.162h7.812l1.009,3.162h6.345Zm-6.174,15.2,2.52-8.746,2.52,8.746Z" transform="translate(-63.852 -22.367)" fill="#d52027"/>
    <path id="n" d="M221.586,134.372l-7.308-11.84h-6.8v23.28l6.551,0V133.3l7.686,12.513h6.427V122.532h-6.553Z" transform="translate(-127.336 -22.367)" fill="#d52027"/>
  </g>
</svg>
